<?xml version="1.0" encoding="UTF-8" standalone="no"?>
<!-- Created with Inkscape (http://www.inkscape.org/) -->

<svg
   width="120.88053"
   height="128"
   viewBox="0 0 31.982973 33.866666"
   version="1.1"
   id="svg58028"
   inkscape:version="1.2.2 (732a01da63, 2022-12-09)"
   sodipodi:docname="burbsecNorth.svg"
   inkscape:export-filename="burbsecNorth.png"
   inkscape:export-xdpi="200"
   inkscape:export-ydpi="200"
   xmlns:inkscape="http://www.inkscape.org/namespaces/inkscape"
   xmlns:sodipodi="http://sodipodi.sourceforge.net/DTD/sodipodi-0.dtd"
   xmlns="http://www.w3.org/2000/svg"
   xmlns:svg="http://www.w3.org/2000/svg">
  <sodipodi:namedview
     id="namedview58030"
     pagecolor="#505050"
     bordercolor="#ffffff"
     borderopacity="1"
     inkscape:pageshadow="0"
     inkscape:pageopacity="0"
     inkscape:pagecheckerboard="1"
     inkscape:document-units="px"
     showgrid="false"
     inkscape:zoom="5.5731762"
     inkscape:cx="29.247236"
     inkscape:cy="69.888334"
     inkscape:window-width="1440"
     inkscape:window-height="1048"
     inkscape:window-x="1440"
     inkscape:window-y="1073"
     inkscape:window-maximized="0"
     inkscape:current-layer="g93929"
     units="px"
     inkscape:showpageshadow="2"
     inkscape:deskcolor="#505050" />
  <defs
     id="defs58025">
    <rect
       x="-15.072195"
       y="-4.8446342"
       width="144.44187"
       height="126.49878"
       id="rect569" />
    <rect
       x="137.26463"
       y="146.05675"
       width="141.57098"
       height="160.05235"
       id="rect280" />
    <rect
       x="229.85715"
       y="503.89914"
       width="348.51471"
       height="56.963718"
       id="rect9304" />
    <rect
       x="255.10742"
       y="607.91211"
       width="275.39224"
       height="139.44778"
       id="rect15048" />
  </defs>
  <g
     inkscape:label="Layer 1"
     inkscape:groupmode="layer"
     id="layer1"
     transform="translate(-89.704931,-112.65255)">
    <g
       id="g57905"
       transform="translate(0.06739115,-52.578362)"
       inkscape:export-filename="buersecNorth.png"
       inkscape:export-xdpi="96"
       inkscape:export-ydpi="96">
      <g
         id="g93929"
         transform="matrix(0.24166557,0,0,0.24166557,79.299556,138.14142)">
        <path
           id="path890"
           style="fill:#000000;stroke-width:1.19876"
           d="m 108.96727,112.09497 c -2.87794,0 -5.75596,0.98115 -10.323927,2.944 -13.010353,5.59051 -23.411947,6.18619 -43.77769,2.50683 -4.353118,-0.78644 -4.35324,-0.78664 -6.816122,6.83937 -8.78418,27.19902 -6.53234,55.60962 6.322613,79.77446 10.727774,20.16602 23.901733,33.34049 44.380237,44.38127 8.785069,4.73642 10.948649,4.82615 18.945619,0.78755 34.90653,-17.6282 57.09743,-52.7759 57.4182,-90.94432 0.10752,-12.78419 -1.26865,-21.72932 -5.23121,-33.99896 -2.46293,-7.62601 -2.46304,-7.62581 -6.81612,-6.83937 -20.36574,3.67936 -30.76738,3.08368 -43.77769,-2.50683 -4.56797,-1.96285 -7.44598,-2.944 -10.32391,-2.944 z m 0.001,6.13244 c 2.42197,2.6e-4 4.84461,0.93004 9.69915,2.78898 9.31437,3.56671 19.85911,5.096 30.37644,4.58576 0.21513,-0.13099 0.43453,-0.24342 0.62477,-0.31316 -0.0226,0.0204 -0.0941,0.0463 -0.0677,0.0615 0.0345,0.0198 0.80354,-0.13023 0.88574,-0.17519 0.45965,0.19354 -0.31756,0.16789 -0.64647,0.39791 0.40993,-0.024 0.8197,-0.027 1.22938,-0.0574 0.007,-0.51832 1.30483,-0.1369 1.91306,-0.23616 l 0.0217,0.0651 c 0.13858,-0.0137 0.27592,-0.0378 0.41444,-0.0522 0.0701,-0.0888 0.14692,-0.13469 0.23513,-0.13798 0.0719,-0.003 0.15274,0.0259 0.24236,0.0775 2.66387,-0.29196 5.31626,-0.69446 7.93078,-1.25987 4.43865,-0.95988 8.63098,25.46517 6.88227,43.38081 -3.01683,30.90786 -22.91214,60.53754 -50.32716,74.95098 -4.38197,2.30381 -8.69754,4.18049 -9.59011,4.17029 -0.89257,-0.0102 -5.27811,-2.03313 -9.745664,-4.49533 -34.366838,-18.9406 -53.871161,-56.25655 -49.897165,-95.46335 1.178754,-11.62928 4.626883,-23.03986 6.825425,-22.58725 15.631504,3.21808 29.770715,2.26628 43.299681,-2.91455 4.851023,-1.85769 7.272023,-2.7867 9.693993,-2.78639 z m -24.486387,17.82062 c -0.03134,0.006 -0.0627,0.0128 -0.09405,0.0191 -0.02119,0.054 -0.04395,0.1072 -0.06511,0.16123 0.01408,0.0247 0.0316,0.0435 0.04651,0.0667 0.03783,-0.0822 0.0748,-0.1648 0.112654,-0.24701 z m -0.162263,0.0677 c -0.0048,0.003 -0.0092,0.005 -0.01498,0.008 -7.94e-4,0.001 -0.0019,0.002 -0.0026,0.003 0.006,-0.004 0.01172,-0.007 0.01757,-0.0108 z m -12.443169,24.72769 c -0.01881,0.0478 -0.0386,0.0953 -0.05943,0.14263 0.02114,0.10847 0.04695,0.21805 0.07286,0.28318 0.01302,-0.1274 0.03667,-0.22479 0.05374,-0.33848 -0.01926,-0.0321 -0.04111,-0.0617 -0.06718,-0.0873 z m -3.07113,2.0035 c -0.0026,0.002 -0.01508,0.084 -0.02376,0.13952 0.0016,0.004 0.0036,0.009 0.0052,0.0129 0.0091,-0.0714 0.01987,-0.15324 0.0186,-0.15244 z m 9.905854,9.51776 c -0.01418,0.0131 -0.02595,0.0285 -0.03876,0.0429 0.0037,0.003 0.0076,0.005 0.01138,0.008 0.0091,-0.0169 0.01828,-0.0338 0.02739,-0.0506 z m -1.985925,2.00401 c -0.01852,0.044 -0.03818,0.0873 -0.05684,0.13126 0.0011,-5.3e-4 0.0021,-0.001 0.0031,-0.002 0.02312,-0.0298 0.05147,-0.065 0.07493,-0.0951 -0.0073,-0.0115 -0.01418,-0.0228 -0.02119,-0.0341 z m 0.984438,20.18533 c -0.08171,-0.006 -0.03329,0.0772 0.07803,0.20102 -0.0033,-0.0616 -0.0066,-0.12335 -0.0098,-0.185 -0.02778,-0.009 -0.05144,-0.0147 -0.06821,-0.016 z m 70.831342,7.26674 c -0.27412,0.21026 -0.11671,0.51398 0.24236,0.004 -0.0808,-0.001 -0.1616,-0.003 -0.24236,-0.004 z m 2.98896,0.0909 c -0.005,0.012 -0.009,0.0241 -0.0134,0.0362 0.088,0.0212 0.14687,0.031 0.0884,-0.005 -0.016,-0.01 -0.0325,-0.02 -0.0486,-0.03 z" />
        <text
           xml:space="preserve"
           transform="matrix(0.34247689,0,0,0.34247689,-18.89133,-48.158344)"
           id="text9302"
           style="font-style:normal;font-weight:normal;font-size:42.6667px;line-height:1.25;font-family:sans-serif;white-space:pre;shape-inside:url(#rect9304);display:inline;fill:#000000;fill-opacity:1;stroke:none"><tspan
             x="229.85742"
             y="542.71955"
             id="tspan758"><tspan
               style="font-weight:bold;font-family:Arial;-inkscape-font-specification:'Arial Bold'"
               id="tspan756">burbsec|north</tspan></tspan></text>
        <text
           xml:space="preserve"
           transform="matrix(1.6121283,0,0,1.6121283,-355.21998,-841.78929)"
           id="text15046"
           style="font-style:normal;font-variant:normal;font-weight:bold;font-stretch:normal;font-size:33.5034px;line-height:1.25;font-family:FreeSans;-inkscape-font-specification:'FreeSans Bold';white-space:pre;shape-inside:url(#rect15048);display:inline;fill:#000000;fill-opacity:1;stroke:none"><tspan
             x="255.10742"
             y="641.45177"
             id="tspan762"><tspan
               style="font-family:Impact;-inkscape-font-specification:'Impact Bold'"
               id="tspan760">2/94</tspan></tspan></text>
        <path
           style="fill:none;stroke:#000000;stroke-width:3;stroke-linecap:round;stroke-linejoin:round;stroke-miterlimit:4;stroke-dasharray:none;stroke-opacity:1"
           d="m 53.943559,143.38539 c 109.393771,0 110.012931,-0.35317 110.012931,-0.35317"
           id="path27910" />
        <text
           xml:space="preserve"
           transform="matrix(1.0948326,0,0,1.0948326,38.398725,112.09496)"
           id="text278"
           style="font-style:normal;font-weight:normal;font-size:40px;line-height:1.25;font-family:sans-serif;white-space:pre;shape-inside:url(#rect280);display:inline;fill:#000000;fill-opacity:1;stroke:none" />
        <text
           xml:space="preserve"
           transform="matrix(1.0948325,0,0,1.0948325,42.778058,112.09496)"
           id="text567"
           style="font-style:normal;font-weight:normal;font-size:40px;line-height:1.25;font-family:sans-serif;white-space:pre;shape-inside:url(#rect569);display:inline;fill:#000000;fill-opacity:1;stroke:none" />
      </g>
    </g>
  </g>
</svg>
